<svg xmlns="http://www.w3.org/2000/svg" viewBox="0 0 175 64" fill="#E9EFF4"><g transform="translate(0,2.56) scale(0.92)"><rect x="28.00" y="8.40" width="8.00" height="5.20" rx="2.60"/><rect x="20.23" y="15.40" width="14.01" height="5.20" rx="2.60"/><rect x="16.39" y="22.40" width="21.70" height="5.20" rx="2.60"/><rect x="19.50" y="29.40" width="25.00" height="5.20" rx="2.60"/><rect x="25.91" y="36.40" width="21.70" height="5.20" rx="2.60"/><rect x="29.76" y="43.40" width="14.01" height="5.20" rx="2.60"/><rect x="28.00" y="50.40" width="8.00" height="5.20" rx="2.60"/></g><path d="M83.24 44.46L83.24 44.46Q79.82 44.46 77.45 43.24Q75.07 42.02 73.36 40.05L73.36 40.05L76.74 36.78Q78.11 38.38 79.80 39.21Q81.49 40.05 83.55 40.05L83.55 40.05Q85.86 40.05 87.04 39.04Q88.22 38.03 88.22 36.32L88.22 36.32Q88.22 34.99 87.46 34.16Q86.70 33.32 84.61 32.94L84.61 32.94L82.10 32.56Q74.16 31.31 74.16 24.85L74.16 24.85Q74.16 23.06 74.82 21.62Q75.49 20.17 76.74 19.15Q78.00 18.12 79.77 17.57Q81.53 17.02 83.77 17.02L83.77 17.02Q86.78 17.02 89.02 18.01Q91.26 19.00 92.86 20.93L92.86 20.93L89.44 24.16Q88.45 22.95 87.04 22.19Q85.64 21.43 83.51 21.43L83.51 21.43Q81.34 21.43 80.26 22.25Q79.18 23.06 79.18 24.54L79.18 24.54Q79.18 26.06 80.05 26.79Q80.92 27.51 82.86 27.85L82.86 27.85L85.33 28.31Q89.36 29.03 91.28 30.87Q93.20 32.71 93.20 36.02L93.20 36.02Q93.20 37.92 92.53 39.46Q91.87 41.00 90.59 42.12Q89.32 43.24 87.48 43.85Q85.64 44.46 83.24 44.46ZM97.91 51.60L97.91 24.16L102.77 24.16L102.77 27.43L102.93 27.43Q103.46 25.72 104.94 24.71Q106.42 23.71 108.40 23.71L108.40 23.71Q112.20 23.71 114.19 26.39Q116.19 29.07 116.19 34.04L116.19 34.04Q116.19 39.06 114.19 41.76Q112.20 44.46 108.40 44.46L108.40 44.46Q106.42 44.46 104.96 43.43Q103.50 42.40 102.93 40.69L102.93 40.69L102.77 40.69L102.77 51.60L97.91 51.60ZM106.84 40.43L106.84 40.43Q108.74 40.43 109.92 39.17Q111.10 37.92 111.10 35.79L111.10 35.79L111.10 32.37Q111.10 30.24 109.92 28.97Q108.74 27.70 106.84 27.70L106.84 27.70Q105.09 27.70 103.93 28.57Q102.77 29.45 102.77 30.89L102.77 30.89L102.77 37.20Q102.77 38.76 103.93 39.59Q105.09 40.43 106.84 40.43ZM123.14 21.28L123.14 21.28Q121.62 21.28 120.96 20.59Q120.29 19.91 120.29 18.84L120.29 18.84L120.29 18.08Q120.29 17.02 120.96 16.34Q121.62 15.65 123.14 15.65L123.14 15.65Q124.62 15.65 125.31 16.34Q125.99 17.02 125.99 18.08L125.99 18.08L125.99 18.84Q125.99 19.91 125.31 20.59Q124.62 21.28 123.14 21.28ZM120.71 44L120.71 24.16L125.57 24.16L125.57 44L120.71 44ZM136.06 44L131.20 44L131.20 24.16L136.06 24.16L136.06 27.47L136.25 27.47Q136.86 25.87 138.17 24.79Q139.48 23.71 141.80 23.71L141.80 23.71Q144.88 23.71 146.51 25.72Q148.15 27.74 148.15 31.46L148.15 31.46L148.15 44L143.28 44L143.28 31.95Q143.28 29.83 142.52 28.76Q141.76 27.70 140.01 27.70L140.01 27.70Q139.25 27.70 138.55 27.91Q137.85 28.12 137.30 28.52Q136.75 28.91 136.40 29.50Q136.06 30.09 136.06 30.89L136.06 30.89L136.06 44ZM161.56 44.46L161.56 44.46Q159.36 44.46 157.63 43.72Q155.90 42.97 154.70 41.63Q153.50 40.28 152.86 38.36Q152.21 36.44 152.21 34.04L152.21 34.04Q152.21 31.69 152.84 29.79Q153.47 27.89 154.64 26.54Q155.82 25.19 157.53 24.45Q159.24 23.71 161.41 23.71L161.41 23.71Q163.73 23.71 165.44 24.51Q167.15 25.30 168.25 26.67Q169.35 28.04 169.90 29.84Q170.45 31.65 170.45 33.70L170.45 33.70L170.45 35.30L157.27 35.30L157.27 35.79Q157.27 37.96 158.48 39.27Q159.70 40.58 162.09 40.58L162.09 40.58Q163.92 40.58 165.07 39.82Q166.23 39.06 167.15 37.88L167.15 37.88L169.77 40.81Q168.55 42.52 166.44 43.49Q164.33 44.46 161.56 44.46ZM161.48 27.36L161.48 27.36Q159.55 27.36 158.41 28.65Q157.27 29.94 157.27 31.99L157.27 31.99L157.27 32.30L165.40 32.30L165.40 31.95Q165.40 29.90 164.39 28.63Q163.38 27.36 161.48 27.36Z"/></svg>